<mxfile host="app.diagrams.net" modified="2023-08-06T18:24:57.967Z" agent="Mozilla/5.0 (Windows NT 10.0; Win64; x64) AppleWebKit/537.36 (KHTML, like Gecko) Chrome/115.0.0.0 Safari/537.36" etag="019RoljwkRtK3CH6Jwi8" version="21.3.8" type="device">
  <diagram name="Page-1" id="pO8ra44OsvrulVHAF1yQ">
    <mxGraphModel dx="1434" dy="768" grid="1" gridSize="10" guides="1" tooltips="1" connect="1" arrows="1" fold="1" page="1" pageScale="1" pageWidth="850" pageHeight="1100" math="0" shadow="0">
      <root>
        <mxCell id="0" />
        <mxCell id="1" parent="0" />
        <mxCell id="TOL7bWYrQr3UsGRGkY9l-1" value="User Controller" style="whiteSpace=wrap;html=1;aspect=fixed;" vertex="1" parent="1">
          <mxGeometry x="110" y="310" width="90" height="90" as="geometry" />
        </mxCell>
        <mxCell id="TOL7bWYrQr3UsGRGkY9l-2" value="" style="shape=flexArrow;endArrow=classic;html=1;rounded=0;exitX=1;exitY=0.5;exitDx=0;exitDy=0;" edge="1" parent="1" source="TOL7bWYrQr3UsGRGkY9l-1">
          <mxGeometry width="50" height="50" relative="1" as="geometry">
            <mxPoint x="260" y="370" as="sourcePoint" />
            <mxPoint x="300" y="355" as="targetPoint" />
          </mxGeometry>
        </mxCell>
        <mxCell id="TOL7bWYrQr3UsGRGkY9l-3" value="Microcontroller" style="whiteSpace=wrap;html=1;aspect=fixed;" vertex="1" parent="1">
          <mxGeometry x="300" y="310" width="90" height="90" as="geometry" />
        </mxCell>
      </root>
    </mxGraphModel>
  </diagram>
</mxfile>
